PathFileType	4	(X/Y/Z)	C:/Users/beibeiliu/ov580/test_trc/User1\sequence.11_training_dense_right.trc
DataRate	CameraRate	NumFrames	NumMarkers	Units	OrigDataRate	OrigDataStartFrame	OrigNumFrames
120	120	23	19	mm	120	128	341
Frame#	Time	ThumbCMC			ThumbMCP			ThumbIP			ThumbTip			IndexMCP			IndexPIP			IndexTip			MiddleMCP			MiddlePIP			MiddleTip			RingMCP			RingPIP			RingTip			PinkyMCP			PinkyPIP			PinkyTip			BackHand1			BackHand2			BackHand3	
		X0	Y0	Z0	X1	Y1	Z1	X2	Y2	Z2	X3	Y3	Z3	X4	Y4	Z4	X5	Y5	Z5	X6	Y6	Z6	X7	Y7	Z7	X8	Y8	Z8	X9	Y9	Z9	X10	Y10	Z10	X11	Y11	Z11	X12	Y12	Z12	X13	Y13	Z13	X14	Y14	Z14	X15	Y15	Z15	X16	Y16	Z16	X17	Y17	Z17	X18	Y18	Z18	
127	1.05833	127.485	103.882	42.8432	113.154	84.3774	20.386	96.7738	75.2678	4.17511	81.2389	67.2023	-11.1231	148.537	133.71	-32.6197	144.646	142.111	-58.7554	150.094	148.063	-83.6446	176.622	138.375	-36.0166	184.21	144.825	-65.0004	189.891	150.994	-93.7082	199.034	127.244	-29.9688	209.723	135.193	-57.1249	215.454	136.86	-78.0533	224.728	100.831	-15.4568	234.54	98.5204	-31.754	247.716	104.94	-47.3449	195.778	120.682	20.7457	192.955	118.6	59.3705	162.473	127.049	38.9467	
128	1.06667	126.083	104.115	42.8028	117.367	83.6007	18.6319	107.02	74.8119	-6.6107	93.264	64.507	-27.0024	146.481	142.323	-31.3941	149.052	147.974	-54.6148	151.936	153.131	-80.7264	178.136	144.004	-32.1247	182.067	154.423	-63.1711	189.569	158.852	-93.6573	199.882	135.454	-30.5183	207.948	142.238	-56.7556	212.007	143.55	-82.1507	224.454	105.343	-16.6953	229.447	105.416	-32.1895	238.066	108.172	-52.7774	196.094	125.102	21.3971	196.559	123.034	58.6103	162.218	130.45	40.9435	
129	1.075	130.587	107.304	37.6527	120.153	87.9015	9.70418	111.464	78.8311	-14.8093	106.792	67.6113	-36.3031	150.647	150.408	-33.3974	147.563	156.517	-55.3079	152.625	159.736	-81.7961	179.319	154.945	-34.0778	186.051	162.111	-61.8776	188.116	167.175	-93.2128	200.689	140.339	-28.6122	208.205	146.313	-53.3663	212.554	146.489	-83.1106	217.924	112.505	-16.0952	229.613	106.494	-38.2176	236.177	107.51	-59.7337	195.439	130.064	24.6498	192.879	123.218	61.0192	160.78	136.791	40.9896	
130	1.08333	131.97	110.426	38.8126	120.402	90.7884	4.22011	120.471	84.1905	-22.2694	120.827	73.2161	-43.5316	151.188	154.958	-30.2098	148.206	160.773	-55.3354	156.662	163.013	-81.6336	185.662	158.544	-33.4474	187.365	167.322	-61.8707	191.68	171.588	-88.4344	203.937	143.41	-29.4842	207.984	149.077	-57.9687	210.031	147.781	-85.4442	217.286	116.043	-20.633	224.914	110.145	-37.7109	227.011	109.336	-65.6391	195.12	134.785	25.7145	198.304	123.949	60.2271	163.736	138.602	40.6724	
131	1.09167	133.624	115.411	35.5185	123.442	94.2669	6.72412	122.23	87.1385	-25.3567	126.976	77.8001	-46.1865	149.546	159.928	-27.2663	151.246	166.103	-53.8202	152.533	166.914	-81.1691	185.624	161.21	-27.5886	189.804	173.555	-60.1039	197.99	178.635	-88.1792	204.532	144.139	-28.3211	207.783	148.773	-58.8772	208.844	142.507	-87.4095	218.01	118.415	-20.1394	218.908	110.62	-44.2562	217.101	106.058	-67.5228	196.407	135.153	28.0539	198.412	129.237	57.9019	166.066	143.53	40.0509	
132	1.1	129.894	115.911	38.8579	122.851	96.7213	4.18249	125.933	91.1419	-28.0741	137.716	82.3449	-47.6201	155.995	161.507	-27.551	155.813	167.399	-54.9024	153.276	170.668	-85.4378	184.02	167.115	-25.9371	192.198	178.77	-56.5131	198.591	184.296	-82.1105	204.531	145.06	-31.3225	206.25	146.978	-58.9885	202.737	138.664	-87.9135	216.816	119.934	-18.4049	212.287	111.913	-47.0297	200.322	102.457	-65.6415	200.765	137.667	28.9145	200.839	126.072	60.9812	165.951	145.125	45.6595	
133	1.10833	130.05	117.288	38.718	128.94	100.106	-0.100127	133.739	93.5654	-25.1091	146.125	84.8902	-47.8223	151.635	165.192	-29.5074	152.383	167.686	-57.0158	157.867	166.276	-86.2726	188.654	167.864	-27.2027	188.807	180.369	-50.7314	199.506	189.304	-79.3815	205.22	144.776	-30.3851	207.921	144.017	-60.3013	205.13	133.714	-85.9236	216.606	121.813	-21.9869	208.903	111.595	-48.5684	189.967	100.663	-59.9196	199.281	137.398	27.0938	196.539	131.112	58.4355	164.562	146.119	43.647	
134	1.11667	134.788	117.886	39.8927	130.014	99.7825	3.3309	133.985	94.1288	-29.434	152.339	87.5074	-50.1633	155.06	163.033	-28.6664	150.964	165.049	-55.3637	154.167	159.6	-86.0873	184.786	170.343	-25.3398	190.985	181.866	-51.088	200.548	192.95	-81.0649	201.421	147.25	-30.4253	203.305	145.21	-59.3336	196.024	133.332	-89.1044	212.095	124.638	-17.4503	200.271	113.759	-45.2512	181.557	96.303	-53.1153	197.873	139.022	31.2717	197.058	127.244	63.1858	168.617	145.773	46.7763	
135	1.125	133.189	118.887	38.8426	127.907	99.786	1.17069	137.775	95.8661	-29.4667	158.352	90.2815	-46.1455	151.709	161.354	-27.4638	155.596	158.627	-56.4448	157.261	150.708	-83.3819	187.837	168.505	-26.9331	191.983	179.791	-50.2275	198.781	190.162	-74.3947	200.816	145.889	-33.0085	200.473	142.742	-62.6691	196.828	131.351	-84.1836	209.642	123.198	-17.9284	199.093	111.008	-45.1803	178.862	90.6289	-49.2419	199.221	137.375	27.6951	197.629	129.008	64.3901	167.26	146.184	43.2974	
136	1.13333	133.203	116.907	41.5215	132.929	101.586	2.10066	143.35	97.2401	-25.2701	162.862	91.5145	-44.1175	157.539	158.045	-27.302	152.35	157.163	-55.7683	155.617	143.852	-84.9576	188.366	165.352	-26.4611	189.909	176.815	-48.2986	200.032	186.906	-74.5289	203.315	141.524	-29.5127	201.911	139.595	-59.3127	196.456	129.656	-86.5839	209.296	122.18	-18.1508	197.937	108.737	-43.7068	174.642	89.2589	-44.6661	200.726	136.609	28.3417	200.444	123.895	63.6274	169.556	146.393	44.9643	
137	1.14167	132.716	116.144	40.4608	132.349	101.26	-0.334508	143.419	97.9269	-29.7938	164.891	89.774	-41.706	156.363	157.677	-31.8585	152.93	153.906	-57.5855	152.512	143.538	-83.5267	188.088	163.428	-27.3328	191.061	177.916	-53.4923	198.405	186.704	-76.8131	203.47	140.648	-33.1965	200.404	139.516	-63.7458	194.481	129.902	-88.7719	207.554	120.789	-21.4743	197.062	110.041	-44.2814	176.944	84.5378	-45.592	203.762	132.641	29.4315	197.429	127.068	61.9109	166.963	145.582	43.9576	
138	1.15	132.501	115.046	38.7699	129.826	98.0908	-0.710576	143.334	93.5944	-29.9726	167.611	84.7789	-45.9543	156.471	153.946	-33.6934	151.911	150.306	-61.864	153.259	138.137	-85.0555	187.746	161.874	-30.117	191.227	172.939	-56.7458	201.286	179.714	-77.5414	202.004	136.774	-31.0758	204.226	135.877	-63.9051	196.431	129.92	-89	208.521	118.703	-21.5767	197.301	109.25	-45.3462	175.643	85.3661	-49.1498	200.218	133.47	26.3089	200.657	123.807	59.3765	168.114	141.141	44.9415	
139	1.15833	135.118	110.571	39.092	133.377	94.9237	-0.585712	144.769	87.9807	-29.2183	168.02	80.9232	-40.135	151.338	149.962	-35.1989	149.895	143.212	-64.1138	150.638	131.447	-85.3827	185.65	156.531	-31.3194	191.204	166.075	-58.7873	201.095	173.19	-81.5492	199.278	132.94	-32.2017	203.96	131.89	-60.9092	201.167	125.23	-90.6756	211.161	112.876	-22.2578	200.142	106.187	-45.103	176.84	81.5274	-49.3944	197.908	129.347	25.1604	198.745	122.27	59.7984	168.211	138.763	42.8937	
140	1.16667	134.534	107.701	36.7204	128.392	87.3684	-1.5656	143.462	80.9684	-25.7971	169.149	75.2952	-40.3583	151.537	142.082	-33.958	153.287	133.718	-65.7471	149.977	123.289	-89.255	184.489	148.349	-30.6271	189.817	158.756	-59.5335	202.362	165.514	-82.9558	204.488	126.15	-33.9627	203.871	127.28	-61.8445	206.716	120.033	-90.0874	210.687	106.895	-17.6059	201.423	100.255	-44.3388	175.626	74.2654	-47.2894	200.593	120.689	27.2658	197.153	117.656	57.2512	163.893	135.754	41.3147	
141	1.175	130.086	100.724	38.5307	131.958	82.5339	-2.30827	144.719	76.1523	-29.8157	170.423	68.8429	-37.9327	149.863	135.884	-39.2761	154.327	127.906	-64.5567	154.387	115.401	-89.2706	186.871	140.475	-32.5531	188.241	151.398	-59.7616	199.806	159.077	-83.4906	200.355	121.754	-36.2829	207.166	119.928	-63.3031	206.858	117.531	-85.5329	213.206	100.91	-18.4047	201.159	90.9471	-46.1696	182.441	68.9836	-50.6402	196.204	120.328	24.3495	198.614	113.918	59.7955	167.419	129.533	39.7002	
142	1.18333	130.977	101.421	33.4157	128.234	79.695	-2.99673	146.03	73.923	-29.7784	170.428	65.4276	-37.3068	153.283	133.241	-38.7477	151.846	127.112	-64.7657	153.077	116.787	-89.8943	186.887	140.563	-35.3564	192.423	147.108	-58.6649	201.947	158.624	-88.333	203.704	118.833	-37.9296	205.466	119.405	-59.7558	210.381	115.44	-89.8133	211.598	99.4194	-21.0011	201.536	91.2262	-45.2557	182.516	65.4136	-54.8163	196.203	116.642	27.1289	200.033	114.105	55.6499	164.283	131.276	38.6449	
143	1.19167	134.347	102.195	33.186	129.23	79.8179	-1.6366	146.654	72.6303	-30.6154	175.044	66.0817	-39.4137	152.329	133.416	-37.0155	151.381	126.943	-68.4051	156.185	115.787	-91.8584	187.01	139.807	-33.7241	193.13	147.926	-59.4256	200.727	159.216	-88.2475	203.372	118.06	-32.9893	210.659	116.852	-65.226	211.277	115.345	-87.3974	212.956	98.2891	-19.0061	205.282	89.2117	-45.762	179.745	70.0352	-55.6542	197.39	120.4	22.2486	195.909	111.968	59.8137	165.695	128.271	37.023	
144	1.2	133.612	101.138	37.4291	129.473	79.953	-3.27716	147.226	74.0642	-28.1516	172.09	64.2534	-40.3521	153.158	134.308	-41.3619	155.424	126.984	-69.2819	152.586	119.086	-91.2361	184.371	140.445	-33.9414	192.55	149.536	-62.1895	200.161	159.301	-86.4625	204.87	118.411	-37.0632	210.279	116.998	-60.7181	214.18	115.278	-89.6574	214.907	98.2188	-21.8026	202.687	88.5014	-49.3748	183.383	72.7248	-56.9658	198.273	117.422	20.5371	196.465	112.979	59.4816	167.633	131.624	36.1553	
145	1.20833	134.656	102.466	36.1727	132.658	83.4619	-3.51356	146.285	74.7434	-28.8733	172.671	67.0577	-40.4242	156.119	133.939	-40.9192	154.821	129.819	-65.8546	153.47	120.289	-91.8449	187.07	141.664	-33.0665	192.333	150.949	-59.7525	201.994	159.436	-85.6995	204.7	120.493	-35.6596	210.166	120.477	-63.5943	214.52	115.958	-88.758	213.179	99.9612	-20.444	205.736	91.6383	-47.1578	186.662	69.605	-58.9934	202.045	116.438	24.6892	198.221	113.319	57.6848	170.364	130.758	37.8564	
146	1.21667	135.276	105.664	33.6506	132.618	85.4051	-0.0570003	148.657	79.3854	-28.6926	171.215	69.5357	-38.2334	153.181	138.367	-41.3034	152.697	133.204	-63.2772	157.06	121.41	-92.8759	187.202	142.969	-33.547	193.846	152.595	-60.6784	203.499	162.359	-89.04	205.355	120.545	-33.3771	210.241	121.466	-63.4361	213.409	118.94	-87.2186	214.847	101.669	-23.855	204.549	91.9006	-48.4449	181.544	73.0327	-55.4635	199.315	122.481	22.5028	199.084	113.615	56.0542	168.449	130.623	39.8678	
147	1.225	133.129	106.408	34.0745	132.47	86.3316	-0.997015	148.317	81.3949	-27.1239	172.46	74.3726	-38.3232	155.943	139.032	-37.8803	155.689	135.264	-65.3738	156.584	125.199	-92.8968	189.949	146.009	-35.5247	193.045	156.846	-62.8739	199.585	165.766	-89.829	203.572	124.579	-34.6409	209.966	124.799	-61.4797	212.907	122.192	-87.5944	212.202	105.067	-19.955	207.392	93.686	-46.6514	185.428	72.9181	-55.5308	198.517	123.811	24.9055	196.594	117.84	54.6296	168.458	132.144	40.1798	
148	1.23333	134.069	107.731	34.1679	131.682	88.2054	-4.67437	147.858	83.9852	-32.2392	171.879	75.6675	-42.5072	153.077	143.956	-40.4379	155.409	138.096	-68.8678	154.665	130.476	-94.4177	186.533	150.244	-36.12	193.259	157.804	-58.9505	202.593	166.935	-89.1974	202.598	129.244	-37.3993	210.382	128.285	-61.9348	210.237	124.959	-88.3858	214.575	107.742	-25.1596	206.723	90.5413	-48.4628	180.696	70.9246	-46.0667	198.792	126.204	21.8937	195.68	121.202	56.5153	167.921	136.563	39.8145	
149	1.24167	131.139	109.046	33.6989	130.948	89.7828	-1.07197	144.884	84.0849	-33.2487	171.359	78.4311	-41.6674	156.065	146.21	-38.4129	156.927	141.839	-64.7151	159.502	133.77	-90.3374	185.883	152.706	-33.7915	192.465	161.177	-60.4876	204.055	169.626	-88.8709	201.964	132.116	-36.7292	208.117	130.368	-62.3598	211.639	125.317	-92.5671	213.445	108.571	-26.7889	204.123	91.9522	-47.9849	178.658	72.3046	-43.1317	197.617	130.41	23.4667	197.933	123.509	56.1219	163.56	139.805	37.3784	
